<svg width="26" height="24" viewBox="0 0 26 24" fill="none" xmlns="http://www.w3.org/2000/svg">
<path d="M24.7448 9.54778L13.3684 1.12184C13.149 0.959387 12.851 0.959387 12.6317 1.12184L1.25526 9.54778C0.977387 9.75362 0.917012 10.1483 1.1205 10.4294C1.32398 10.7105 1.71421 10.7715 1.99204 10.5657L13 2.41259L24.008 10.5657C24.119 10.648 24.248 10.6876 24.3758 10.6876C24.5678 10.6876 24.7573 10.5982 24.8795 10.4294C25.083 10.1483 25.0226 9.75362 24.7448 9.54778Z" fill="white" stroke="white"/>
<path d="M21.7303 10.7085C21.386 10.7085 21.1067 10.9909 21.1067 11.3393V21.3799H16.1182V15.8991C16.1182 14.1598 14.7194 12.7449 13.0001 12.7449C11.2808 12.7449 9.88196 14.1599 9.88196 15.8991V21.3799H4.89339V11.3393C4.89339 10.991 4.61416 10.7085 4.26982 10.7085C3.92547 10.7085 3.64624 10.991 3.64624 11.3393V22.0108C3.64624 22.3592 3.92547 22.6416 4.26982 22.6416H10.5055C10.8335 22.6416 11.1018 22.3853 11.1267 22.0599C11.1282 22.0452 11.1291 22.029 11.1291 22.0108V15.8991C11.1291 14.8555 11.9684 14.0065 13.0001 14.0065C14.0318 14.0065 14.871 14.8556 14.871 15.8991V22.0108C14.871 22.0289 14.872 22.0448 14.8735 22.0593C14.898 22.3849 15.1665 22.6416 15.4946 22.6416H21.7303C22.0747 22.6416 22.3539 22.3592 22.3539 22.0108V11.3393C22.3539 10.9909 22.0747 10.7085 21.7303 10.7085Z" fill="white" stroke="white"/>
</svg>
