<svg width="24" height="24" viewBox="0 0 24 24" fill="none" xmlns="http://www.w3.org/2000/svg">
<path d="M7.07684 2.78405L12 5.56809L16.9231 2.78405L12 0L7.07684 2.78405Z" fill="white"/>
<path d="M18.3515 3.5918L13.4283 6.37584L18.3515 9.15989L23.2747 6.37584L18.3515 3.5918Z" fill="white"/>
<path d="M17.6484 10.3778L12.7031 7.58124V21.2034L17.6484 24V10.3778Z" fill="white"/>
<path d="M5.64842 11.2107L0.725281 13.9947L5.64842 16.7788L10.5716 13.9947L5.64842 11.2107Z" fill="white"/>
<path d="M11.2969 12.7893V6.786L6.35156 3.9894V9.99277L11.2969 12.7893Z" fill="white"/>
<path d="M19.0547 10.3778V24L24 21.2034V7.58119L19.0547 10.3778Z" fill="white"/>
<path d="M6.35156 17.9967V24L11.2969 21.2034V15.2001L6.35156 17.9967Z" fill="white"/>
<path d="M4.94531 17.9967L0 15.2001V21.2034L4.94531 24V17.9967Z" fill="white"/>
</svg>
