<svg width="24" height="18" viewBox="0 0 24 18" fill="none" xmlns="http://www.w3.org/2000/svg">
<path fill-rule="evenodd" clip-rule="evenodd" d="M17.0945 9.96001C18.5891 10.9746 19.6364 12.3491 19.6364 14.1818V17.4546H24V14.1818C24 11.8036 20.1055 10.3964 17.0945 9.96001Z" fill="white"/>
<path d="M8.72728 8.72727C11.1373 8.72727 13.0909 6.77361 13.0909 4.36364C13.0909 1.95367 11.1373 0 8.72728 0C6.31731 0 4.36365 1.95367 4.36365 4.36364C4.36365 6.77361 6.31731 8.72727 8.72728 8.72727Z" fill="white"/>
<path fill-rule="evenodd" clip-rule="evenodd" d="M15.2727 8.72727C17.6837 8.72727 19.6364 6.77455 19.6364 4.36364C19.6364 1.95273 17.6837 0 15.2727 0C14.76 0 14.28 0.109091 13.8218 0.261818C14.7273 1.38545 15.2727 2.81455 15.2727 4.36364C15.2727 5.91273 14.7273 7.34182 13.8218 8.46546C14.28 8.61818 14.76 8.72727 15.2727 8.72727Z" fill="white"/>
<path fill-rule="evenodd" clip-rule="evenodd" d="M8.72727 9.81818C5.81455 9.81818 0 11.28 0 14.1818V17.4545H17.4545V14.1818C17.4545 11.28 11.64 9.81818 8.72727 9.81818Z" fill="white"/>
</svg>
