<svg width="543" height="430" viewBox="0 0 543 430" fill="none" xmlns="http://www.w3.org/2000/svg">
<g style="mix-blend-mode:multiply" opacity="0.5">
<path d="M470.592 575.011C419.751 547.578 409.661 504.402 397.889 454.418C387.239 408.993 375.174 357.513 329.403 308.517C285.643 261.659 239.665 247.596 195.173 233.991C147.269 219.348 102.01 205.569 60.8088 153.274C27.1385 110.592 7.48233 56.048 2.33979 -8.98764H0C5.1791 56.5917 24.9938 111.655 58.9931 154.732C100.645 207.559 146.246 221.461 194.503 236.289C238.69 249.796 284.388 263.759 327.734 310.16C373.054 358.699 385.008 409.845 395.635 454.974C407.492 505.539 417.728 549.185 469.495 577.137C490.004 588.258 517.021 596.698 542.892 603V600.529C517.374 594.301 490.772 585.898 470.592 575.011ZM481.194 564.248C430.353 536.827 420.263 493.652 408.491 443.63C397.865 398.217 385.801 346.762 340.029 297.816C296.269 250.957 250.267 236.87 205.799 223.29C157.871 208.622 112.624 194.782 71.4107 142.548C39.6171 102.227 20.3387 51.3152 13.9531 -8.98764H11.6012C18.0233 51.896 37.4846 103.265 69.595 143.981C111.247 196.784 156.848 210.71 205.129 225.539C249.316 239.057 294.99 253.046 338.336 299.447C383.68 347.986 395.61 399.132 406.237 444.235C418.094 494.801 428.33 538.471 480.097 566.386C497.815 575.938 520.396 583.612 542.892 589.568V587.171C520.774 581.19 498.583 573.639 481.194 564.248ZM491.795 553.497C440.955 526.077 430.865 482.876 419.117 432.879C408.467 387.467 396.403 335.987 350.631 287.065C306.871 240.194 260.868 226.132 216.413 212.527C168.498 197.883 123.226 184.043 82.037 131.81C52.1566 93.8485 33.3169 46.6195 25.859 -8.98764H23.5314C30.9893 47.2127 50.0119 94.9112 80.2213 133.206C121.873 186.033 167.462 199.935 215.731 214.763C259.918 228.282 305.616 242.233 348.938 288.647C394.282 337.198 406.285 388.332 416.863 433.46C428.708 484.025 438.932 527.696 490.699 555.61C505.627 563.655 524.028 570.352 542.892 575.827V573.355C524.393 567.955 506.419 561.381 491.795 553.497ZM502.422 542.722C451.581 515.301 441.491 472.125 429.732 422.128C419.081 376.716 407.004 325.236 361.246 276.228C317.473 229.369 271.495 215.319 227.015 201.714C179.112 187.071 133.852 173.293 92.639 120.997C64.684 85.5692 46.4048 41.9979 38.0694 -8.98764H35.7175C44.1138 42.5417 62.5271 86.6072 90.8354 122.455C132.475 175.282 178.088 189.184 226.333 204.012C270.52 217.531 316.218 231.482 359.564 277.896C404.896 326.422 416.839 377.569 427.477 422.709C439.334 473.262 449.558 516.92 501.325 544.86C513.426 551.397 527.818 557.031 542.892 561.838V559.367C528.942 555.047 515.398 549.477 502.422 542.722ZM513.024 531.971C462.195 504.551 452.093 461.362 440.333 411.353C429.707 365.928 417.631 314.485 371.872 265.539C328.099 218.68 282.109 204.606 237.642 191.025C189.714 176.357 144.454 162.517 103.253 110.284C77.321 77.3147 59.6877 37.3764 50.6212 -8.98764H48.184C57.3236 37.9695 75.1031 78.3774 101.389 111.705C143.041 164.507 188.641 178.433 236.923 193.262C281.097 206.768 326.771 220.756 370.117 267.17C415.474 315.696 427.392 366.843 438.03 411.959C449.887 462.512 460.124 506.182 511.89 534.109C521.865 539.363 532.211 543.857 542.843 547.553V545.082C532.603 541.452 522.636 537.07 513.024 531.971ZM523.626 521.22C472.797 493.788 462.695 450.587 450.96 400.602C440.309 355.177 428.233 303.698 382.474 254.788C338.701 207.905 292.711 193.855 248.244 180.25C200.34 165.606 155.056 151.754 113.879 99.5205C89.9458 69.1342 73.1046 32.8166 63.5263 -8.98764H61.1622C70.777 33.385 87.8376 70.1969 112.064 100.991C153.716 153.805 199.292 167.72 247.573 182.548C291.76 196.054 337.446 210.018 380.804 256.431C426.125 304.983 438.079 356.104 448.705 401.245C460.538 451.798 470.774 495.468 522.541 523.395C529.147 526.911 535.941 530.05 542.892 532.799V530.328C536.313 527.644 529.882 524.604 523.626 521.22ZM534.264 510.445C483.424 483.012 473.334 439.836 461.562 389.827C450.911 344.427 438.847 292.947 393.076 244.013C349.315 197.154 303.337 183.092 258.845 169.487C210.942 154.843 165.683 141.065 124.481 88.7697C102.619 61.065 86.7043 28.3804 76.7848 -8.92586H74.4329C84.3889 28.9488 100.523 62.1277 122.69 90.2402C164.342 143.03 209.943 156.969 258.224 171.797C302.386 185.304 348.085 199.267 391.431 245.668C436.751 294.207 448.705 345.354 459.332 390.482C471.189 441.047 481.425 484.693 533.192 512.645C536.287 514.313 539.541 515.919 542.941 517.476V514.857C539.918 513.398 537.026 511.928 534.264 510.445ZM472.188 379.027C461.537 333.614 449.473 282.159 403.702 233.212C359.942 186.354 313.939 172.267 269.472 158.686C221.544 144.019 176.297 130.179 135.083 77.9449C115.39 52.934 100.487 23.8576 90.482 -8.98764H88.0448C98.1105 24.4508 113.221 54.0338 133.268 79.4154C174.944 132.217 220.52 146.144 268.802 160.973C312.988 174.491 358.662 188.48 402.008 234.881C447.353 283.419 459.283 334.566 469.909 379.669C481.705 429.951 491.844 473.411 542.892 501.325V498.669C493.77 471.137 483.753 428.455 472.188 379.027ZM482.79 368.276C472.139 322.863 460.075 271.384 414.304 222.375C370.556 175.566 324.565 161.541 280.086 147.948C232.17 133.305 186.899 119.527 145.71 67.2312C127.843 44.3717 113.94 18.5981 104.594 -8.98764H102.156C111.594 19.1157 125.711 45.3715 143.894 68.6399C185.546 121.467 231.134 135.369 279.403 150.197C323.59 163.716 369.288 177.667 412.634 224.08C457.955 272.632 469.909 323.766 480.535 368.894C491.503 415.468 501.008 456.197 542.892 484.137V481.332C502.812 453.8 493.465 413.874 482.79 368.313V368.276ZM493.404 357.501C482.753 312.113 470.677 260.633 424.918 211.686C381.145 164.828 335.167 150.778 290.688 137.173C242.784 122.529 197.525 108.689 156.311 56.4311C140.796 36.6135 128.274 14.566 119.156 -8.98764H116.719C125.932 15.1124 138.689 37.66 154.557 57.8892C196.197 110.691 241.809 124.618 290.078 139.446C334.241 152.965 379.939 166.916 423.285 213.33C468.617 261.856 480.56 313.003 491.198 358.143C501.118 400.491 509.916 437.983 542.941 465.465V462.314C511.659 435.375 503.068 398.798 493.404 357.538V357.501ZM504.03 346.75C493.38 301.325 481.303 249.882 435.544 200.936C391.772 154.077 345.781 140.002 301.314 126.422C253.386 111.754 208.127 97.914 166.95 45.6804C153.799 28.9472 142.815 10.5751 134.267 -8.98764H131.708C140.41 11.1054 151.641 29.971 165.122 47.1385C206.799 99.9406 252.375 113.867 300.656 128.696C344.831 142.202 390.504 156.19 433.85 202.604C479.207 251.13 491.125 302.276 501.764 347.392C510.526 384.785 518.41 418.421 542.904 444.693V441.171C520.116 415.48 512.488 382.907 504.03 346.787V346.75ZM514.632 335.999C503.982 290.574 491.905 239.094 446.146 190.098C402.374 143.24 356.408 129.19 311.916 115.585C264.012 100.942 218.753 87.0892 177.552 34.8555C166.835 21.2715 157.567 6.5752 149.902 -8.98764H147.318C155.156 7.12072 164.684 22.3254 175.736 36.3631C217.388 89.1775 262.964 103.092 311.246 117.92C355.433 131.427 401.119 145.39 444.465 191.804C489.797 240.355 501.739 291.476 512.378 336.617C519.69 367.979 526.465 396.697 542.843 420.646V416.358C528.049 393.237 521.664 365.842 514.632 336.036V335.999ZM525.234 325.224C514.584 279.824 502.519 228.344 456.748 179.409C412.988 132.551 367.009 118.501 322.518 104.883C274.614 90.2402 229.355 76.462 188.154 24.1419C179.947 13.7228 172.59 2.64296 166.158 -8.98764H163.501C170.151 3.17002 177.79 14.7436 186.338 25.6124C227.99 78.4021 273.591 92.341 321.872 107.17C366.059 120.676 411.733 134.639 455.079 181.041C500.399 229.579 512.353 280.726 522.98 325.854C528.512 349.444 533.679 371.514 542.892 391.199V385.403C535.068 367.065 530.279 346.787 525.234 325.261V325.224ZM535.861 314.461C525.21 269.048 513.146 217.593 467.374 168.646C423.614 121.788 377.612 107.701 333.144 94.1204C285.253 79.4401 239.969 65.6001 198.731 13.3664C193.11 6.22156 187.894 -1.24186 183.109 -8.98764H180.342C185.399 -0.712117 190.942 7.24787 196.94 14.8493C238.617 67.6514 284.193 81.5779 332.474 96.3447C376.649 109.863 422.335 123.852 465.681 170.191C511.025 218.755 522.955 269.901 533.582 315.004C536.555 327.695 539.443 339.953 542.892 351.631V342.981C540.394 333.837 538.164 324.285 535.861 314.498V314.461ZM477.976 157.834C434.216 110.988 388.238 96.9255 343.758 83.3202C295.843 68.677 250.595 54.8988 209.382 2.60336C206.409 -1.16969 203.565 -5.03748 200.852 -9H198.012C201.059 -4.51436 204.276 -0.176998 207.615 4.0615C249.267 56.8883 294.868 70.7901 343.125 85.6187C387.312 99.1374 433.01 113.089 476.356 159.502C519.702 205.915 532.631 254.936 542.892 298.705V288.733C532.79 247.127 518.751 201.504 477.976 157.834ZM488.591 147.083C444.818 100.237 398.84 86.1624 354.385 72.5695C306.457 57.9139 261.197 44.1481 219.984 -8.15971L219.363 -8.98764H216.413C216.962 -8.20914 217.632 -7.45536 218.18 -6.67686C259.82 46.1252 305.433 60.0517 353.702 74.8803C397.889 88.399 443.563 102.35 486.909 148.764C517.447 181.448 532.838 215.307 542.892 247.732V240.12C532.753 209.524 517.277 177.828 488.591 147.095V147.083ZM499.217 136.332C455.444 89.4741 409.454 75.3993 364.987 61.7941C320.239 48.1271 277.844 35.1521 238.946 -8.98764H235.802C275.577 36.9315 318.753 50.1289 364.365 64.0678C408.54 77.5742 454.238 91.5625 497.56 137.951C516.661 158.292 532.03 181.927 542.941 207.744V201.924C532.091 177.736 517.31 155.567 499.217 136.345V136.332ZM509.819 125.557C466.046 78.6987 420.08 64.6486 375.589 51.0434C334.729 38.5503 295.818 26.6627 259.662 -8.98764H256.335C293.284 28.368 333.108 40.5274 374.894 53.3171C419.081 66.8234 464.767 80.787 508.125 127.2C521.662 141.627 533.343 157.733 542.892 175.134V170.352C533.635 154.163 522.534 139.132 509.819 125.569V125.557ZM520.445 114.806C476.685 67.948 430.682 53.8979 386.215 40.2803C349.754 29.1589 314.853 18.4699 282.109 -9H278.453C312.099 20.1011 347.987 31.0866 385.496 42.554C429.732 56.048 475.356 70.0981 518.751 116.437C527.591 125.896 535.664 136.061 542.892 146.836V142.647C536.098 132.821 528.595 123.52 520.445 114.819V114.806ZM531.047 104.056C487.287 57.1972 441.284 43.1101 396.817 29.5049C365.572 19.9651 335.423 10.7838 306.822 -8.98764H302.728C332.401 12.279 363.658 21.9052 396.147 31.7909C440.333 45.3097 486.031 59.298 529.353 105.674C534.228 110.914 538.741 116.174 542.892 121.454V117.747C539.212 113.113 535.288 108.591 531.047 104.068V104.056ZM541.649 93.2677C497.889 46.4218 451.91 32.3594 407.431 18.7542C382.498 11.1545 358.284 3.75257 334.984 -8.98764H330.11C354.714 5.11186 380.305 12.9463 406.748 21.0279C450.984 34.5466 496.633 48.4978 539.943 94.9112C540.942 95.974 541.893 97.0367 542.855 98.0994V94.6023L541.649 93.2677ZM418.082 8.01579C401.119 2.82579 384.472 -2.26536 368.24 -8.98764H362.245C380.171 -1.11614 398.584 4.51872 417.399 10.2524C458.978 22.9679 501.885 36.1036 542.916 76.289V73.002C501.959 33.6692 459.356 20.6695 418.082 8.01579ZM428.683 -2.75964C421.957 -4.81093 415.279 -6.8375 408.686 -8.93821H401.021C409.905 -5.9725 418.874 -3.22921 427.952 -0.448855C465.949 11.1792 505.066 23.1286 542.855 55.7638V52.6498C505.237 20.6695 466.4 8.79429 428.659 -2.80907L428.683 -2.75964ZM453.933 -8.93821H445.988C478.098 0.947502 510.891 12.0689 542.916 36.4125V33.4097C513.474 11.3399 483.448 0.30493 453.909 -8.98764L453.933 -8.93821ZM495.61 -8.93821H488.956C507.933 -2.14405 526.046 6.91124 542.916 18.0374V15.1582C528.025 5.43612 512.159 -2.65773 495.585 -8.98764L495.61 -8.93821ZM530.425 -8.93821H525.051C530.998 -6.07959 536.953 -2.90381 542.916 0.589146V-2.19121C538.732 -4.62145 534.561 -6.88693 530.401 -8.98764L530.425 -8.93821Z" fill="#2BD5BE" fill-opacity="0.15"/>
</g>
</svg>
